<svg width="375" height="266" viewBox="0 0 375 266" fill="none" xmlns="http://www.w3.org/2000/svg">
<g filter="url(#filter0_d)">
<mask id="mask0" mask-type="alpha" maskUnits="userSpaceOnUse" x="16" y="24" width="343" height="216">
<rect x="16" y="24" width="343" height="216" rx="8" fill="#222222"/>
</mask>
<g mask="url(#mask0)">
<g filter="url(#filter1_d)">
<rect x="16" y="24" width="344" height="216" rx="8" fill="#9B9B9B"/>
</g>
<path d="M227.5 161.5C207.204 158.502 183.838 160.679 165.418 163.642C144.515 167.005 122.696 164.38 104.493 153.567C80.4884 139.309 51.2911 136.779 25.1923 146.697L16.5 150L8 247H296L294.425 235.028C293.81 230.357 292.712 225.786 290.764 221.496C283.629 205.785 262.541 166.677 227.5 161.5Z" fill="url(#paint0_linear)" fill-opacity="0.05"/>
<circle cx="326.5" cy="53.5" r="120.5" fill="url(#paint1_linear)" fill-opacity="0.05"/>
<mask id="mask1" mask-type="alpha" maskUnits="userSpaceOnUse" x="40" y="135" width="32" height="24">
<rect x="40" y="135" width="32" height="24" rx="8" fill="#FFBA49"/>
</mask>
<g mask="url(#mask1)">
<rect x="40" y="135" width="32" height="24" rx="8" fill="#FFBA49"/>
<rect x="34" y="137" width="20" height="7" rx="2.5" stroke="#D29634" stroke-width="0.3"/>
<rect x="34" y="144" width="20" height="7" rx="2.5" stroke="#D29634" stroke-width="0.3"/>
<rect x="34" y="151" width="20" height="7" rx="2.5" stroke="#D29634" stroke-width="0.3"/>
<rect x="59" y="137" width="20" height="7" rx="2.5" stroke="#D29634" stroke-width="0.3"/>
<rect x="59" y="144" width="20" height="7" rx="2.5" stroke="#D29634" stroke-width="0.3"/>
<rect x="59" y="151" width="20" height="7" rx="2.5" stroke="#D29634" stroke-width="0.3"/>
</g>
<path d="M44.5028 190.12C45.5128 190.12 46.4328 189.69 47.0928 189L46.2128 188.18C45.7828 188.67 45.1728 188.98 44.5028 188.98C43.2328 188.98 42.1628 187.88 42.1628 186.56C42.1628 185.25 43.2328 184.15 44.5028 184.15C45.1628 184.15 45.7828 184.46 46.2028 184.95L47.0928 184.12C46.4328 183.44 45.5128 183.01 44.5028 183.01C42.5428 183.01 40.8928 184.63 40.8928 186.56C40.8928 188.49 42.5428 190.12 44.5028 190.12ZM49.8591 184.71C49.2091 184.71 48.5291 184.89 47.7991 185.25L48.2191 186.1C48.6591 185.88 49.1291 185.71 49.6191 185.71C50.5591 185.71 50.8891 186.29 50.8891 186.89V187.03C50.4191 186.85 49.9091 186.75 49.4391 186.75C48.2791 186.75 47.3291 187.45 47.3291 188.47C47.3291 189.47 48.1591 190.12 49.2591 190.12C49.8591 190.12 50.5091 189.86 50.8891 189.38V190H52.0791V186.89C52.0791 185.58 51.2291 184.71 49.8591 184.71ZM49.5291 189.23C48.9491 189.23 48.5191 188.92 48.5191 188.43C48.5191 187.94 49.0091 187.6 49.6191 187.6C50.0791 187.6 50.5091 187.67 50.8891 187.8V188.38C50.7491 188.93 50.1191 189.23 49.5291 189.23ZM54.2421 185.83V184.83H53.0221V190H54.2421V187.39C54.2421 186.41 54.9821 185.75 56.0921 185.75V184.71C55.2421 184.71 54.5721 185.14 54.2421 185.83ZM60.518 183.01V185.63C60.108 185.05 59.488 184.71 58.728 184.71C57.358 184.71 56.358 185.83 56.358 187.41C56.358 189 57.358 190.12 58.728 190.12C59.488 190.12 60.108 189.78 60.518 189.2V190H61.738V183.01H60.518ZM59.058 189.08C58.188 189.08 57.568 188.38 57.568 187.41C57.568 186.44 58.188 185.75 59.058 185.75C59.918 185.75 60.518 186.44 60.518 187.41C60.518 188.38 59.918 189.08 59.058 189.08ZM69.8475 183.13V185.93H66.4175V183.13H65.1675V190H66.4175V187.07H69.8475V190H71.0975V183.13H69.8475ZM74.573 190.12C76.073 190.12 77.343 188.88 77.343 187.41C77.343 185.94 76.073 184.71 74.573 184.71C73.073 184.71 71.803 185.94 71.803 187.41C71.803 188.88 73.073 190.12 74.573 190.12ZM74.573 189.08C73.713 189.08 72.993 188.32 72.993 187.41C72.993 186.51 73.713 185.75 74.573 185.75C75.423 185.75 76.143 186.51 76.143 187.41C76.143 188.32 75.423 189.08 74.573 189.08ZM77.9931 190H79.2131V183.01H77.9931V190ZM84.0835 183.01V185.63C83.6735 185.05 83.0535 184.71 82.2935 184.71C80.9235 184.71 79.9235 185.83 79.9235 187.41C79.9235 189 80.9235 190.12 82.2935 190.12C83.0535 190.12 83.6735 189.78 84.0835 189.2V190H85.3035V183.01H84.0835ZM82.6235 189.08C81.7535 189.08 81.1335 188.38 81.1335 187.41C81.1335 186.44 81.7535 185.75 82.6235 185.75C83.4835 185.75 84.0835 186.44 84.0835 187.41C84.0835 188.38 83.4835 189.08 82.6235 189.08ZM88.6789 189.04C87.9389 189.04 87.3989 188.54 87.2489 187.83H91.1489C91.1489 185.92 90.2189 184.71 88.6189 184.71C87.1489 184.71 85.9889 185.85 85.9889 187.4C85.9889 188.99 87.2089 190.12 88.6889 190.12C89.4389 190.12 90.3389 189.8 90.7889 189.32L90.0189 188.52C89.7289 188.82 89.1589 189.04 88.6789 189.04ZM88.6689 185.79C89.3989 185.79 89.8389 186.25 89.9789 186.9H87.2589C87.4389 186.22 87.9889 185.79 88.6689 185.79ZM93.0484 185.83V184.83H91.8284V190H93.0484V187.39C93.0484 186.41 93.7884 185.75 94.8984 185.75V184.71C94.0484 184.71 93.3784 185.14 93.0484 185.83ZM97.9484 190H99.1984V185.17L102.828 190H104.068V183.13H102.828V187.96L99.1984 183.13H97.9484V190ZM107.385 184.71C106.735 184.71 106.055 184.89 105.325 185.25L105.745 186.1C106.185 185.88 106.655 185.71 107.145 185.71C108.085 185.71 108.415 186.29 108.415 186.89V187.03C107.945 186.85 107.435 186.75 106.965 186.75C105.805 186.75 104.855 187.45 104.855 188.47C104.855 189.47 105.685 190.12 106.785 190.12C107.385 190.12 108.035 189.86 108.415 189.38V190H109.605V186.89C109.605 185.58 108.755 184.71 107.385 184.71ZM107.055 189.23C106.475 189.23 106.045 188.92 106.045 188.43C106.045 187.94 106.535 187.6 107.145 187.6C107.605 187.6 108.035 187.67 108.415 187.8V188.38C108.275 188.93 107.645 189.23 107.055 189.23ZM116.488 184.71C115.718 184.71 115.068 185.09 114.818 185.69C114.498 185.08 113.898 184.71 113.168 184.71C112.518 184.71 111.988 185.03 111.728 185.53V184.83H110.508V190H111.728V186.83C111.728 186.2 112.198 185.75 112.858 185.75C113.458 185.75 113.868 186.23 113.868 186.91V190H115.058V186.83C115.058 186.2 115.518 185.75 116.188 185.75C116.778 185.75 117.188 186.23 117.188 186.91V190H118.378V186.71C118.378 185.54 117.568 184.71 116.488 184.71ZM121.7 189.04C120.96 189.04 120.42 188.54 120.27 187.83H124.17C124.17 185.92 123.24 184.71 121.64 184.71C120.17 184.71 119.01 185.85 119.01 187.4C119.01 188.99 120.23 190.12 121.71 190.12C122.46 190.12 123.36 189.8 123.81 189.32L123.04 188.52C122.75 188.82 122.18 189.04 121.7 189.04ZM121.69 185.79C122.42 185.79 122.86 186.25 123 186.9H120.28C120.46 186.22 121.01 185.79 121.69 185.79Z" fill="white"/>
<path d="M286.88 184.27V183.13H281.71V190H286.88V188.86H282.96V187.07H286.51V185.93H282.96V184.27H286.88ZM292.369 190L290.429 187.35L292.279 184.83H290.949L289.769 186.44L288.589 184.83H287.249L289.099 187.36L287.159 190H288.489L289.759 188.27L291.019 190H292.369ZM295.877 184.71C295.107 184.71 294.487 185.06 294.077 185.65V184.83H292.857V191.72H294.077V189.18C294.487 189.77 295.107 190.12 295.877 190.12C297.247 190.12 298.247 189 298.247 187.41C298.247 185.83 297.247 184.71 295.877 184.71ZM295.547 189.08C294.687 189.08 294.087 188.38 294.087 187.41C294.087 186.44 294.687 185.75 295.547 185.75C296.417 185.75 297.037 186.44 297.037 187.41C297.037 188.38 296.417 189.08 295.547 189.08ZM299.562 184.05C299.942 184.05 300.252 183.72 300.252 183.35C300.252 182.98 299.942 182.66 299.562 182.66C299.172 182.66 298.862 182.98 298.862 183.35C298.862 183.72 299.172 184.05 299.562 184.05ZM298.942 190H300.162V184.83H298.942V190ZM302.352 185.83V184.83H301.132V190H302.352V187.39C302.352 186.41 303.092 185.75 304.202 185.75V184.71C303.352 184.71 302.682 185.14 302.352 185.83ZM305.748 191.8C306.528 191.79 307.128 191.34 307.518 190.36L309.708 184.83H308.448L307.028 188.69L305.518 184.83H304.228L306.418 190.04L306.198 190.5C306.048 190.75 305.828 190.84 305.538 190.84C305.348 190.84 305.098 190.77 304.878 190.65L304.618 191.53C304.928 191.7 305.358 191.8 305.748 191.8ZM312.831 190H315.251C317.521 190 319.121 188.57 319.121 186.56C319.121 184.55 317.521 183.13 315.251 183.13H312.831V190ZM314.081 188.87V184.26H315.381C316.831 184.26 317.851 185.21 317.851 186.56C317.851 187.91 316.831 188.87 315.381 188.87H314.081ZM322.15 184.71C321.5 184.71 320.82 184.89 320.09 185.25L320.51 186.1C320.95 185.88 321.42 185.71 321.91 185.71C322.85 185.71 323.18 186.29 323.18 186.89V187.03C322.71 186.85 322.2 186.75 321.73 186.75C320.57 186.75 319.62 187.45 319.62 188.47C319.62 189.47 320.45 190.12 321.55 190.12C322.15 190.12 322.8 189.86 323.18 189.38V190H324.37V186.89C324.37 185.58 323.52 184.71 322.15 184.71ZM321.82 189.23C321.24 189.23 320.81 188.92 320.81 188.43C320.81 187.94 321.3 187.6 321.91 187.6C322.37 187.6 322.8 187.67 323.18 187.8V188.38C323.04 188.93 322.41 189.23 321.82 189.23ZM327.863 188.89C327.753 189 327.563 189.08 327.353 189.08C327.063 189.08 326.843 188.83 326.843 188.48V185.84H328.013V184.83H326.843V183.41H325.653V184.83H324.903V185.84H325.653V188.63C325.653 189.5 326.253 190.12 327.113 190.12C327.503 190.12 327.923 189.96 328.213 189.71L327.863 188.89ZM331.162 189.04C330.422 189.04 329.882 188.54 329.732 187.83H333.632C333.632 185.92 332.702 184.71 331.102 184.71C329.632 184.71 328.472 185.85 328.472 187.4C328.472 188.99 329.692 190.12 331.172 190.12C331.922 190.12 332.822 189.8 333.272 189.32L332.502 188.52C332.212 188.82 331.642 189.04 331.162 189.04ZM331.152 185.79C331.882 185.79 332.322 186.25 332.462 186.9H329.742C329.922 186.22 330.472 185.79 331.152 185.79Z" fill="white"/>
</g>
<path d="M303.984 43.283L297.437 58.758H293.167L289.946 46.4079C289.75 45.6475 289.58 45.3685 288.986 45.0487C288.015 44.5259 286.411 44.0361 285 43.7318L285.095 43.283H291.97C292.42 43.2823 292.855 43.4409 293.196 43.7303C293.538 44.0196 293.764 44.4205 293.833 44.8606L295.535 53.8157L299.74 43.283H303.984ZM320.718 53.7052C320.736 49.6214 315.018 49.3959 315.057 47.5711C315.07 47.0163 315.603 46.4263 316.771 46.2751C318.137 46.1465 319.513 46.3857 320.754 46.9673L321.464 43.6862C320.255 43.2365 318.975 43.0041 317.684 43C313.691 43 310.88 45.1037 310.857 48.1152C310.831 50.344 312.863 51.586 314.395 52.3271C315.968 53.0854 316.496 53.5719 316.49 54.25C316.479 55.2889 315.235 55.7467 314.072 55.7647C312.041 55.796 310.862 55.2207 309.922 54.7869L309.191 58.1781C310.134 58.6072 311.877 58.9817 313.684 59C317.928 59 320.704 56.9233 320.718 53.7052ZM331.263 58.758H335L331.738 43.283H328.29C327.921 43.2797 327.56 43.3861 327.254 43.5885C326.947 43.7908 326.709 44.0798 326.57 44.418L320.508 58.758H324.749L325.592 56.4461H330.775L331.263 58.758ZM326.755 53.2749L328.882 47.4644L330.106 53.2749H326.755ZM309.757 43.283L306.416 58.758H302.375L305.717 43.283H309.757Z" fill="white"/>
</g>
<defs>
<filter id="filter0_d" x="-9" y="0" width="393" height="266" filterUnits="userSpaceOnUse" color-interpolation-filters="sRGB">
<feFlood flood-opacity="0" result="BackgroundImageFix"/>
<feColorMatrix in="SourceAlpha" type="matrix" values="0 0 0 0 0 0 0 0 0 0 0 0 0 0 0 0 0 0 127 0"/>
<feOffset dy="1"/>
<feGaussianBlur stdDeviation="12.5"/>
<feColorMatrix type="matrix" values="0 0 0 0 0 0 0 0 0 0 0 0 0 0 0 0 0 0 0.34 0"/>
<feBlend mode="normal" in2="BackgroundImageFix" result="effect1_dropShadow"/>
<feBlend mode="normal" in="SourceGraphic" in2="effect1_dropShadow" result="shape"/>
</filter>
<filter id="filter1_d" x="-9" y="0" width="394" height="266" filterUnits="userSpaceOnUse" color-interpolation-filters="sRGB">
<feFlood flood-opacity="0" result="BackgroundImageFix"/>
<feColorMatrix in="SourceAlpha" type="matrix" values="0 0 0 0 0 0 0 0 0 0 0 0 0 0 0 0 0 0 127 0"/>
<feOffset dy="1"/>
<feGaussianBlur stdDeviation="12.5"/>
<feColorMatrix type="matrix" values="0 0 0 0 0 0 0 0 0 0 0 0 0 0 0 0 0 0 0.08 0"/>
<feBlend mode="normal" in2="BackgroundImageFix" result="effect1_dropShadow"/>
<feBlend mode="normal" in="SourceGraphic" in2="effect1_dropShadow" result="shape"/>
</filter>
<linearGradient id="paint0_linear" x1="119.5" y1="237.5" x2="311" y2="116.5" gradientUnits="userSpaceOnUse">
<stop stop-color="white"/>
<stop offset="1" stop-color="white" stop-opacity="0"/>
</linearGradient>
<linearGradient id="paint1_linear" x1="326.5" y1="-67" x2="326.5" y2="174" gradientUnits="userSpaceOnUse">
<stop stop-color="white"/>
<stop offset="1" stop-color="white" stop-opacity="0"/>
</linearGradient>
</defs>
</svg>
