<svg width="375" height="266" viewBox="0 0 375 266" fill="none" xmlns="http://www.w3.org/2000/svg">
<g filter="url(#filter0_d)">
<mask id="mask0" mask-type="alpha" maskUnits="userSpaceOnUse" x="16" y="24" width="343" height="216">
<rect x="16" y="24" width="343" height="216" rx="8" fill="#222222"/>
</mask>
<g mask="url(#mask0)">
<g filter="url(#filter1_d)">
<rect x="16" y="24" width="344" height="216" rx="8" fill="#222222"/>
</g>
<path d="M227.5 161.5C207.204 158.502 183.838 160.679 165.418 163.642C144.515 167.005 122.696 164.38 104.493 153.567C80.4884 139.309 51.2911 136.779 25.1923 146.697L16.5 150L8 247H296L294.425 235.028C293.81 230.357 292.712 225.786 290.764 221.496C283.629 205.785 262.541 166.677 227.5 161.5Z" fill="url(#paint0_linear)" fill-opacity="0.05"/>
<circle cx="326.5" cy="53.5" r="120.5" fill="url(#paint1_linear)" fill-opacity="0.05"/>
</g>
<path d="M308.817 207.876V206.221C308.817 205.587 308.433 205.173 307.775 205.173C307.445 205.173 307.089 205.283 306.842 205.642C306.65 205.338 306.375 205.173 305.964 205.173C305.689 205.173 305.415 205.256 305.195 205.559V205.228H304.619V207.876H305.195V206.414C305.195 205.945 305.442 205.725 305.826 205.725C306.211 205.725 306.403 205.973 306.403 206.414V207.876H306.979V206.414C306.979 205.945 307.253 205.725 307.61 205.725C307.994 205.725 308.186 205.973 308.186 206.414V207.876H308.817ZM317.351 205.228H316.418V204.428H315.842V205.228H315.321V205.752H315.842V206.966C315.842 207.572 316.089 207.931 316.748 207.931C316.995 207.931 317.269 207.848 317.461 207.738L317.297 207.241C317.132 207.352 316.94 207.379 316.803 207.379C316.528 207.379 316.418 207.214 316.418 206.938V205.752H317.351V205.228ZM322.236 205.173C321.907 205.173 321.687 205.338 321.55 205.559V205.228H320.974V207.876H321.55V206.386C321.55 205.945 321.742 205.697 322.099 205.697C322.208 205.697 322.346 205.725 322.455 205.752L322.62 205.201C322.51 205.173 322.346 205.173 322.236 205.173ZM314.854 205.449C314.58 205.256 314.196 205.173 313.784 205.173C313.126 205.173 312.687 205.504 312.687 206.028C312.687 206.469 313.016 206.717 313.592 206.8L313.866 206.828C314.168 206.883 314.333 206.966 314.333 207.103C314.333 207.297 314.113 207.434 313.729 207.434C313.345 207.434 313.043 207.297 312.851 207.159L312.577 207.6C312.879 207.821 313.29 207.931 313.702 207.931C314.47 207.931 314.909 207.572 314.909 207.076C314.909 206.607 314.553 206.359 314.004 206.276L313.729 206.249C313.482 206.221 313.29 206.166 313.29 206C313.29 205.807 313.482 205.697 313.784 205.697C314.113 205.697 314.443 205.835 314.607 205.918L314.854 205.449ZM330.166 205.173C329.837 205.173 329.617 205.338 329.48 205.559V205.228H328.904V207.876H329.48V206.386C329.48 205.945 329.672 205.697 330.029 205.697C330.139 205.697 330.276 205.725 330.386 205.752L330.55 205.201C330.441 205.173 330.276 205.173 330.166 205.173ZM322.812 206.552C322.812 207.352 323.361 207.931 324.212 207.931C324.596 207.931 324.87 207.848 325.145 207.627L324.87 207.159C324.651 207.324 324.431 207.407 324.184 207.407C323.718 207.407 323.388 207.076 323.388 206.552C323.388 206.056 323.718 205.725 324.184 205.697C324.431 205.697 324.651 205.78 324.87 205.945L325.145 205.476C324.87 205.256 324.596 205.173 324.212 205.173C323.361 205.173 322.812 205.752 322.812 206.552ZM328.136 206.552V205.228H327.559V205.559C327.367 205.311 327.093 205.173 326.736 205.173C325.995 205.173 325.419 205.752 325.419 206.552C325.419 207.352 325.995 207.931 326.736 207.931C327.12 207.931 327.395 207.793 327.559 207.545V207.876H328.136V206.552ZM326.023 206.552C326.023 206.083 326.325 205.697 326.818 205.697C327.285 205.697 327.614 206.056 327.614 206.552C327.614 207.021 327.285 207.407 326.818 207.407C326.325 207.379 326.023 207.021 326.023 206.552ZM319.135 205.173C318.367 205.173 317.818 205.725 317.818 206.552C317.818 207.379 318.367 207.931 319.163 207.931C319.547 207.931 319.931 207.821 320.233 207.572L319.958 207.159C319.739 207.324 319.464 207.434 319.19 207.434C318.833 207.434 318.477 207.269 318.394 206.8H320.342V206.58C320.37 205.725 319.876 205.173 319.135 205.173ZM319.135 205.669C319.492 205.669 319.739 205.89 319.794 206.304H318.422C318.477 205.945 318.723 205.669 319.135 205.669ZM333.432 206.552V204.18H332.855V205.559C332.663 205.311 332.389 205.173 332.032 205.173C331.291 205.173 330.715 205.752 330.715 206.552C330.715 207.352 331.291 207.931 332.032 207.931C332.416 207.931 332.691 207.793 332.855 207.545V207.876H333.432V206.552ZM331.319 206.552C331.319 206.083 331.621 205.697 332.114 205.697C332.581 205.697 332.91 206.056 332.91 206.552C332.91 207.021 332.581 207.407 332.114 207.407C331.621 207.379 331.319 207.021 331.319 206.552ZM312.055 206.552V205.228H311.479V205.559C311.287 205.311 311.013 205.173 310.656 205.173C309.915 205.173 309.339 205.752 309.339 206.552C309.339 207.352 309.915 207.931 310.656 207.931C311.04 207.931 311.315 207.793 311.479 207.545V207.876H312.055V206.552ZM309.915 206.552C309.915 206.083 310.217 205.697 310.711 205.697C311.177 205.697 311.507 206.056 311.507 206.552C311.507 207.021 311.177 207.407 310.711 207.407C310.217 207.379 309.915 207.021 309.915 206.552Z" fill="white"/>
<path d="M323.306 185.124H314.662V200.733H323.306V185.124Z" fill="#FF5F00"/>
<path d="M315.211 192.928C315.211 189.757 316.693 186.944 318.97 185.124C317.297 183.8 315.184 183 312.879 183C307.418 183 303 187.44 303 192.928C303 198.416 307.418 202.857 312.879 202.857C315.184 202.857 317.297 202.057 318.97 200.733C316.693 198.94 315.211 196.1 315.211 192.928Z" fill="#EB001B"/>
<path d="M334.968 192.928C334.968 198.416 330.55 202.857 325.09 202.857C322.785 202.857 320.672 202.057 318.998 200.733C321.303 198.913 322.757 196.1 322.757 192.928C322.757 189.757 321.275 186.944 318.998 185.124C320.672 183.8 322.785 183 325.09 183C330.55 183 334.968 187.468 334.968 192.928Z" fill="#F79E1B"/>
<mask id="mask1" mask-type="alpha" maskUnits="userSpaceOnUse" x="40" y="58" width="32" height="24">
<rect x="40" y="58" width="32" height="24" rx="8" fill="#FFBA49"/>
</mask>
<g mask="url(#mask1)">
<rect x="40" y="58" width="32" height="24" rx="8" fill="#FFBA49"/>
<rect x="34" y="60" width="20" height="7" rx="2.5" stroke="#D29634" stroke-width="0.3"/>
<rect x="34" y="67" width="20" height="7" rx="2.5" stroke="#D29634" stroke-width="0.3"/>
<rect x="34" y="74" width="20" height="7" rx="2.5" stroke="#D29634" stroke-width="0.3"/>
<rect x="59" y="60" width="20" height="7" rx="2.5" stroke="#D29634" stroke-width="0.3"/>
<rect x="59" y="67" width="20" height="7" rx="2.5" stroke="#D29634" stroke-width="0.3"/>
<rect x="59" y="74" width="20" height="7" rx="2.5" stroke="#D29634" stroke-width="0.3"/>
</g>
<path opacity="0.8" d="M44.5028 190.12C45.5128 190.12 46.4328 189.69 47.0928 189L46.2128 188.18C45.7828 188.67 45.1728 188.98 44.5028 188.98C43.2328 188.98 42.1628 187.88 42.1628 186.56C42.1628 185.25 43.2328 184.15 44.5028 184.15C45.1628 184.15 45.7828 184.46 46.2028 184.95L47.0928 184.12C46.4328 183.44 45.5128 183.01 44.5028 183.01C42.5428 183.01 40.8928 184.63 40.8928 186.56C40.8928 188.49 42.5428 190.12 44.5028 190.12ZM49.8591 184.71C49.2091 184.71 48.5291 184.89 47.7991 185.25L48.2191 186.1C48.6591 185.88 49.1291 185.71 49.6191 185.71C50.5591 185.71 50.8891 186.29 50.8891 186.89V187.03C50.4191 186.85 49.9091 186.75 49.4391 186.75C48.2791 186.75 47.3291 187.45 47.3291 188.47C47.3291 189.47 48.1591 190.12 49.2591 190.12C49.8591 190.12 50.5091 189.86 50.8891 189.38V190H52.0791V186.89C52.0791 185.58 51.2291 184.71 49.8591 184.71ZM49.5291 189.23C48.9491 189.23 48.5191 188.92 48.5191 188.43C48.5191 187.94 49.0091 187.6 49.6191 187.6C50.0791 187.6 50.5091 187.67 50.8891 187.8V188.38C50.7491 188.93 50.1191 189.23 49.5291 189.23ZM54.2421 185.83V184.83H53.0221V190H54.2421V187.39C54.2421 186.41 54.9821 185.75 56.0921 185.75V184.71C55.2421 184.71 54.5721 185.14 54.2421 185.83ZM60.518 183.01V185.63C60.108 185.05 59.488 184.71 58.728 184.71C57.358 184.71 56.358 185.83 56.358 187.41C56.358 189 57.358 190.12 58.728 190.12C59.488 190.12 60.108 189.78 60.518 189.2V190H61.738V183.01H60.518ZM59.058 189.08C58.188 189.08 57.568 188.38 57.568 187.41C57.568 186.44 58.188 185.75 59.058 185.75C59.918 185.75 60.518 186.44 60.518 187.41C60.518 188.38 59.918 189.08 59.058 189.08ZM69.8475 183.13V185.93H66.4175V183.13H65.1675V190H66.4175V187.07H69.8475V190H71.0975V183.13H69.8475ZM74.573 190.12C76.073 190.12 77.343 188.88 77.343 187.41C77.343 185.94 76.073 184.71 74.573 184.71C73.073 184.71 71.803 185.94 71.803 187.41C71.803 188.88 73.073 190.12 74.573 190.12ZM74.573 189.08C73.713 189.08 72.993 188.32 72.993 187.41C72.993 186.51 73.713 185.75 74.573 185.75C75.423 185.75 76.143 186.51 76.143 187.41C76.143 188.32 75.423 189.08 74.573 189.08ZM77.9931 190H79.2131V183.01H77.9931V190ZM84.0835 183.01V185.63C83.6735 185.05 83.0535 184.71 82.2935 184.71C80.9235 184.71 79.9235 185.83 79.9235 187.41C79.9235 189 80.9235 190.12 82.2935 190.12C83.0535 190.12 83.6735 189.78 84.0835 189.2V190H85.3035V183.01H84.0835ZM82.6235 189.08C81.7535 189.08 81.1335 188.38 81.1335 187.41C81.1335 186.44 81.7535 185.75 82.6235 185.75C83.4835 185.75 84.0835 186.44 84.0835 187.41C84.0835 188.38 83.4835 189.08 82.6235 189.08ZM88.6789 189.04C87.9389 189.04 87.3989 188.54 87.2489 187.83H91.1489C91.1489 185.92 90.2189 184.71 88.6189 184.71C87.1489 184.71 85.9889 185.85 85.9889 187.4C85.9889 188.99 87.2089 190.12 88.6889 190.12C89.4389 190.12 90.3389 189.8 90.7889 189.32L90.0189 188.52C89.7289 188.82 89.1589 189.04 88.6789 189.04ZM88.6689 185.79C89.3989 185.79 89.8389 186.25 89.9789 186.9H87.2589C87.4389 186.22 87.9889 185.79 88.6689 185.79ZM93.0484 185.83V184.83H91.8284V190H93.0484V187.39C93.0484 186.41 93.7884 185.75 94.8984 185.75V184.71C94.0484 184.71 93.3784 185.14 93.0484 185.83ZM97.9484 190H99.1984V185.17L102.828 190H104.068V183.13H102.828V187.96L99.1984 183.13H97.9484V190ZM107.385 184.71C106.735 184.71 106.055 184.89 105.325 185.25L105.745 186.1C106.185 185.88 106.655 185.71 107.145 185.71C108.085 185.71 108.415 186.29 108.415 186.89V187.03C107.945 186.85 107.435 186.75 106.965 186.75C105.805 186.75 104.855 187.45 104.855 188.47C104.855 189.47 105.685 190.12 106.785 190.12C107.385 190.12 108.035 189.86 108.415 189.38V190H109.605V186.89C109.605 185.58 108.755 184.71 107.385 184.71ZM107.055 189.23C106.475 189.23 106.045 188.92 106.045 188.43C106.045 187.94 106.535 187.6 107.145 187.6C107.605 187.6 108.035 187.67 108.415 187.8V188.38C108.275 188.93 107.645 189.23 107.055 189.23ZM116.488 184.71C115.718 184.71 115.068 185.09 114.818 185.69C114.498 185.08 113.898 184.71 113.168 184.71C112.518 184.71 111.988 185.03 111.728 185.53V184.83H110.508V190H111.728V186.83C111.728 186.2 112.198 185.75 112.858 185.75C113.458 185.75 113.868 186.23 113.868 186.91V190H115.058V186.83C115.058 186.2 115.518 185.75 116.188 185.75C116.778 185.75 117.188 186.23 117.188 186.91V190H118.378V186.71C118.378 185.54 117.568 184.71 116.488 184.71ZM121.7 189.04C120.96 189.04 120.42 188.54 120.27 187.83H124.17C124.17 185.92 123.24 184.71 121.64 184.71C120.17 184.71 119.01 185.85 119.01 187.4C119.01 188.99 120.23 190.12 121.71 190.12C122.46 190.12 123.36 189.8 123.81 189.32L123.04 188.52C122.75 188.82 122.18 189.04 121.7 189.04ZM121.69 185.79C122.42 185.79 122.86 186.25 123 186.9H120.28C120.46 186.22 121.01 185.79 121.69 185.79Z" fill="white"/>
<path opacity="0.8" d="M200.88 184.27V183.13H195.71V190H200.88V188.86H196.96V187.07H200.51V185.93H196.96V184.27H200.88ZM206.369 190L204.429 187.35L206.279 184.83H204.949L203.769 186.44L202.589 184.83H201.249L203.099 187.36L201.159 190H202.489L203.759 188.27L205.019 190H206.369ZM209.877 184.71C209.107 184.71 208.487 185.06 208.077 185.65V184.83H206.857V191.72H208.077V189.18C208.487 189.77 209.107 190.12 209.877 190.12C211.247 190.12 212.247 189 212.247 187.41C212.247 185.83 211.247 184.71 209.877 184.71ZM209.547 189.08C208.687 189.08 208.087 188.38 208.087 187.41C208.087 186.44 208.687 185.75 209.547 185.75C210.417 185.75 211.037 186.44 211.037 187.41C211.037 188.38 210.417 189.08 209.547 189.08ZM213.562 184.05C213.942 184.05 214.252 183.72 214.252 183.35C214.252 182.98 213.942 182.66 213.562 182.66C213.172 182.66 212.862 182.98 212.862 183.35C212.862 183.72 213.172 184.05 213.562 184.05ZM212.942 190H214.162V184.83H212.942V190ZM216.352 185.83V184.83H215.132V190H216.352V187.39C216.352 186.41 217.092 185.75 218.202 185.75V184.71C217.352 184.71 216.682 185.14 216.352 185.83ZM219.748 191.8C220.528 191.79 221.128 191.34 221.518 190.36L223.708 184.83H222.448L221.028 188.69L219.518 184.83H218.228L220.418 190.04L220.198 190.5C220.048 190.75 219.828 190.84 219.538 190.84C219.348 190.84 219.098 190.77 218.878 190.65L218.618 191.53C218.928 191.7 219.358 191.8 219.748 191.8ZM226.831 190H229.251C231.521 190 233.121 188.57 233.121 186.56C233.121 184.55 231.521 183.13 229.251 183.13H226.831V190ZM228.081 188.87V184.26H229.381C230.831 184.26 231.851 185.21 231.851 186.56C231.851 187.91 230.831 188.87 229.381 188.87H228.081ZM236.15 184.71C235.5 184.71 234.82 184.89 234.09 185.25L234.51 186.1C234.95 185.88 235.42 185.71 235.91 185.71C236.85 185.71 237.18 186.29 237.18 186.89V187.03C236.71 186.85 236.2 186.75 235.73 186.75C234.57 186.75 233.62 187.45 233.62 188.47C233.62 189.47 234.45 190.12 235.55 190.12C236.15 190.12 236.8 189.86 237.18 189.38V190H238.37V186.89C238.37 185.58 237.52 184.71 236.15 184.71ZM235.82 189.23C235.24 189.23 234.81 188.92 234.81 188.43C234.81 187.94 235.3 187.6 235.91 187.6C236.37 187.6 236.8 187.67 237.18 187.8V188.38C237.04 188.93 236.41 189.23 235.82 189.23ZM241.863 188.89C241.753 189 241.563 189.08 241.353 189.08C241.063 189.08 240.843 188.83 240.843 188.48V185.84H242.013V184.83H240.843V183.41H239.653V184.83H238.903V185.84H239.653V188.63C239.653 189.5 240.253 190.12 241.113 190.12C241.503 190.12 241.923 189.96 242.213 189.71L241.863 188.89ZM245.162 189.04C244.422 189.04 243.882 188.54 243.732 187.83H247.632C247.632 185.92 246.702 184.71 245.102 184.71C243.632 184.71 242.472 185.85 242.472 187.4C242.472 188.99 243.692 190.12 245.172 190.12C245.922 190.12 246.822 189.8 247.272 189.32L246.502 188.52C246.212 188.82 245.642 189.04 245.162 189.04ZM245.152 185.79C245.882 185.79 246.322 186.25 246.462 186.9H243.742C243.922 186.22 244.472 185.79 245.152 185.79Z" fill="white"/>
</g>
<defs>
<filter id="filter0_d" x="-9" y="0" width="393" height="266" filterUnits="userSpaceOnUse" color-interpolation-filters="sRGB">
<feFlood flood-opacity="0" result="BackgroundImageFix"/>
<feColorMatrix in="SourceAlpha" type="matrix" values="0 0 0 0 0 0 0 0 0 0 0 0 0 0 0 0 0 0 127 0"/>
<feOffset dy="1"/>
<feGaussianBlur stdDeviation="12.5"/>
<feColorMatrix type="matrix" values="0 0 0 0 0 0 0 0 0 0 0 0 0 0 0 0 0 0 0.34 0"/>
<feBlend mode="normal" in2="BackgroundImageFix" result="effect1_dropShadow"/>
<feBlend mode="normal" in="SourceGraphic" in2="effect1_dropShadow" result="shape"/>
</filter>
<filter id="filter1_d" x="-9" y="0" width="394" height="266" filterUnits="userSpaceOnUse" color-interpolation-filters="sRGB">
<feFlood flood-opacity="0" result="BackgroundImageFix"/>
<feColorMatrix in="SourceAlpha" type="matrix" values="0 0 0 0 0 0 0 0 0 0 0 0 0 0 0 0 0 0 127 0"/>
<feOffset dy="1"/>
<feGaussianBlur stdDeviation="12.5"/>
<feColorMatrix type="matrix" values="0 0 0 0 0 0 0 0 0 0 0 0 0 0 0 0 0 0 0.08 0"/>
<feBlend mode="normal" in2="BackgroundImageFix" result="effect1_dropShadow"/>
<feBlend mode="normal" in="SourceGraphic" in2="effect1_dropShadow" result="shape"/>
</filter>
<linearGradient id="paint0_linear" x1="119.5" y1="237.5" x2="311" y2="116.5" gradientUnits="userSpaceOnUse">
<stop stop-color="white"/>
<stop offset="1" stop-color="white" stop-opacity="0"/>
</linearGradient>
<linearGradient id="paint1_linear" x1="326.5" y1="-67" x2="326.5" y2="174" gradientUnits="userSpaceOnUse">
<stop stop-color="white"/>
<stop offset="1" stop-color="white" stop-opacity="0"/>
</linearGradient>
</defs>
</svg>
