<svg width="22" height="20" viewBox="0 0 22 20" fill="none" xmlns="http://www.w3.org/2000/svg">
<path d="M7.75002 0.166656L5.76752 2.33332H2.33335C1.14169 2.33332 0.166687 3.30832 0.166687 4.49999V17.5C0.166687 18.6917 1.14169 19.6667 2.33335 19.6667H19.6667C20.8584 19.6667 21.8334 18.6917 21.8334 17.5V4.49999C21.8334 3.30832 20.8584 2.33332 19.6667 2.33332H16.2325L14.25 0.166656H7.75002ZM11 16.4167C8.01002 16.4167 5.58335 13.99 5.58335 11C5.58335 8.00999 8.01002 5.58332 11 5.58332C13.99 5.58332 16.4167 8.00999 16.4167 11C16.4167 13.99 13.99 16.4167 11 16.4167Z" fill="white"/>
</svg>
